HIERARCHY
ROOT Hips
{
  OFFSET -0.196171 207.375 -1.77214
  CHANNELS 6 Xposition Yposition Zposition Zrotation Xrotation Yrotation
  JOINT Spine
  {
    OFFSET -0.2002 19.8047 -3.8901
    CHANNELS 6 Xposition Yposition Zposition Zrotation Xrotation Yrotation
    JOINT Spine1
    {
      OFFSET -0.2704 23.5003 -2.3603
      CHANNELS 6 Xposition Yposition Zposition Zrotation Xrotation Yrotation
      JOINT Spine2
      {
        OFFSET -0.1091 27.8076 -1.1954
        CHANNELS 6 Xposition Yposition Zposition Zrotation Xrotation Yrotation
        JOINT Neck
        {
          OFFSET 0.573 31.0619 3.7617
          CHANNELS 6 Xposition Yposition Zposition Zrotation Xrotation Yrotation
          JOINT Head
          {
            OFFSET 1.0419 22.231 6.5135
            CHANNELS 6 Xposition Yposition Zposition Zrotation Xrotation Yrotation
            JOINT HeadTop_End
            {
              OFFSET 0.1539 38.3123 10.8264
              CHANNELS 6 Xposition Yposition Zposition Zrotation Xrotation Yrotation
              End Site
              {
                OFFSET 0 0 0
              }
            }
            JOINT RightEye
            {
              OFFSET -6.1169 16.4759 16.457
              CHANNELS 6 Xposition Yposition Zposition Zrotation Xrotation Yrotation
              End Site
              {
                OFFSET 0 0 0
              }
            }
            JOINT LeftEye
            {
              OFFSET 6.0855 16.7363 16.7604
              CHANNELS 6 Xposition Yposition Zposition Zrotation Xrotation Yrotation
              End Site
              {
                OFFSET 0 0 0
              }
            }
          }
        }
        JOINT LeftShoulder
        {
          OFFSET 12.9541 18.8948 2.6782
          CHANNELS 6 Xposition Yposition Zposition Zrotation Xrotation Yrotation
          JOINT LeftArm
          {
            OFFSET 26.2666 0.5486 -4.0542
            CHANNELS 6 Xposition Yposition Zposition Zrotation Xrotation Yrotation
            JOINT LeftForeArm
            {
              OFFSET 54.6704 0.9321 7.0242
              CHANNELS 6 Xposition Yposition Zposition Zrotation Xrotation Yrotation
              JOINT LeftHand
              {
                OFFSET 52.4557 -0.9324 5.7058
                CHANNELS 6 Xposition Yposition Zposition Zrotation Xrotation Yrotation
                JOINT LeftHandMiddle1
                {
                  OFFSET 27.3527 -0.3203 4.6354
                  CHANNELS 6 Xposition Yposition Zposition Zrotation Xrotation Yrotation
                  JOINT LeftHandMiddle2
                  {
                    OFFSET 6.9025 0.1377 0.6199
                    CHANNELS 6 Xposition Yposition Zposition Zrotation Xrotation Yrotation
                    JOINT LeftHandMiddle3
                    {
                      OFFSET 6.7755 -0.2326 0.7745
                      CHANNELS 6 Xposition Yposition Zposition Zrotation Xrotation Yrotation
                      End Site
                      {
                        OFFSET 7.3547 0.1793 0.7264
                      }
                    }
                  }
                }
                JOINT LeftHandThumb1
                {
                  OFFSET 9.8642 -2.831 8.1733
                  CHANNELS 6 Xposition Yposition Zposition Zrotation Xrotation Yrotation
                  JOINT LeftHandThumb2
                  {
                    OFFSET 8.0692 -4.4193 6.4299
                    CHANNELS 6 Xposition Yposition Zposition Zrotation Xrotation Yrotation
                    JOINT LeftHandThumb3
                    {
                      OFFSET 6.7468 -3.6274 4.6394
                      CHANNELS 6 Xposition Yposition Zposition Zrotation Xrotation Yrotation
                      End Site
                      {
                        OFFSET 4.2603 -2.2543 3.2163
                      }
                    }
                  }
                }
                JOINT LeftHandIndex1
                {
                  OFFSET 27.224 -0.2989 9.8593
                  CHANNELS 6 Xposition Yposition Zposition Zrotation Xrotation Yrotation
                  JOINT LeftHandIndex2
                  {
                    OFFSET 7.0183 -0.1543 0.777
                    CHANNELS 6 Xposition Yposition Zposition Zrotation Xrotation Yrotation
                    JOINT LeftHandIndex3
                    {
                      OFFSET 6.4569 -0.1256 0.6937
                      CHANNELS 6 Xposition Yposition Zposition Zrotation Xrotation Yrotation
                      End Site
                      {
                        OFFSET 6.5573 0.0216 0.6882
                      }
                    }
                  }
                }
                JOINT LeftHandRing1
                {
                  OFFSET 25.8273 -0.6126 0.0868
                  CHANNELS 6 Xposition Yposition Zposition Zrotation Xrotation Yrotation
                  JOINT LeftHandRing2
                  {
                    OFFSET 6.2955 0.1052 0.4118
                    CHANNELS 6 Xposition Yposition Zposition Zrotation Xrotation Yrotation
                    JOINT LeftHandRing3
                    {
                      OFFSET 6.315 0.079 0.7471
                      CHANNELS 6 Xposition Yposition Zposition Zrotation Xrotation Yrotation
                      End Site
                      {
                        OFFSET 7.0267 -0.2247 0.3259
                      }
                    }
                  }
                }
                JOINT LeftHandPinky1
                {
                  OFFSET 23.0359 -1.5146 -4.9212
                  CHANNELS 6 Xposition Yposition Zposition Zrotation Xrotation Yrotation
                  JOINT LeftHandPinky2
                  {
                    OFFSET 6.5099 0.2003 0.5558
                    CHANNELS 6 Xposition Yposition Zposition Zrotation Xrotation Yrotation
                    JOINT LeftHandPinky3
                    {
                      OFFSET 4.1296 -0.0413 0.3994
                      CHANNELS 6 Xposition Yposition Zposition Zrotation Xrotation Yrotation
                      End Site
                      {
                        OFFSET 5.5376 -0.0117 0.536
                      }
                    }
                  }
                }
              }
            }
          }
        }
        JOINT RightShoulder
        {
          OFFSET -12.6373 19.2153 2.1809
          CHANNELS 6 Xposition Yposition Zposition Zrotation Xrotation Yrotation
          JOINT RightArm
          {
            OFFSET -26.3323 0.6126 -5.423
            CHANNELS 6 Xposition Yposition Zposition Zrotation Xrotation Yrotation
            JOINT RightForeArm
            {
              OFFSET -55.8405 -0.451 -0.1976
              CHANNELS 6 Xposition Yposition Zposition Zrotation Xrotation Yrotation
              JOINT RightHand
              {
                OFFSET -50.2693 -0.9952 1.8626
                CHANNELS 6 Xposition Yposition Zposition Zrotation Xrotation Yrotation
                JOINT RightHandMiddle1
                {
                  OFFSET -26.0132 -0.6833 1.5036
                  CHANNELS 6 Xposition Yposition Zposition Zrotation Xrotation Yrotation
                  JOINT RightHandMiddle2
                  {
                    OFFSET -6.1576 0.141 0.0941
                    CHANNELS 6 Xposition Yposition Zposition Zrotation Xrotation Yrotation
                    JOINT RightHandMiddle3
                    {
                      OFFSET -7.2704 -0.3348 0.122
                      CHANNELS 6 Xposition Yposition Zposition Zrotation Xrotation Yrotation
                      End Site
                      {
                        OFFSET -7.4586 -0.0347 0.1367
                      }
                    }
                  }
                }
                JOINT RightHandThumb1
                {
                  OFFSET -9.0209 -3.67 6.9854
                  CHANNELS 6 Xposition Yposition Zposition Zrotation Xrotation Yrotation
                  JOINT RightHandThumb2
                  {
                    OFFSET -7.9552 -4.0356 5.2472
                    CHANNELS 6 Xposition Yposition Zposition Zrotation Xrotation Yrotation
                    JOINT RightHandThumb3
                    {
                      OFFSET -6.5146 -3.6908 4.179
                      CHANNELS 6 Xposition Yposition Zposition Zrotation Xrotation Yrotation
                      End Site
                      {
                        OFFSET -4.5331 -2.546 3.2641
                      }
                    }
                  }
                }
                JOINT RightHandIndex1
                {
                  OFFSET -26.2498 -0.8312 6.6599
                  CHANNELS 6 Xposition Yposition Zposition Zrotation Xrotation Yrotation
                  JOINT RightHandIndex2
                  {
                    OFFSET -7.0902 0.0154 0.1648
                    CHANNELS 6 Xposition Yposition Zposition Zrotation Xrotation Yrotation
                    JOINT RightHandIndex3
                    {
                      OFFSET -7.4109 -0.1674 0.1538
                      CHANNELS 6 Xposition Yposition Zposition Zrotation Xrotation Yrotation
                      End Site
                      {
                        OFFSET -5.5182 -0.1567 0.1502
                      }
                    }
                  }
                }
                JOINT RightHandRing1
                {
                  OFFSET -24.2596 -0.9504 -2.5755
                  CHANNELS 6 Xposition Yposition Zposition Zrotation Xrotation Yrotation
                  JOINT RightHandRing2
                  {
                    OFFSET -6.8571 -0.0068 -0.072
                    CHANNELS 6 Xposition Yposition Zposition Zrotation Xrotation Yrotation
                    JOINT RightHandRing3
                    {
                      OFFSET -6.8326 -0.1266 0.154
                      CHANNELS 6 Xposition Yposition Zposition Zrotation Xrotation Yrotation
                      End Site
                      {
                        OFFSET -6.0143 -0.1431 -0.1193
                      }
                    }
                  }
                }
                JOINT RightHandPinky1
                {
                  OFFSET -21.4052 -1.733 -7.2503
                  CHANNELS 6 Xposition Yposition Zposition Zrotation Xrotation Yrotation
                  JOINT RightHandPinky2
                  {
                    OFFSET -5.9395 0.0245 0.0143
                    CHANNELS 6 Xposition Yposition Zposition Zrotation Xrotation Yrotation
                    JOINT RightHandPinky3
                    {
                      OFFSET -3.7637 -0.0874 0.0158
                      CHANNELS 6 Xposition Yposition Zposition Zrotation Xrotation Yrotation
                      End Site
                      {
                        OFFSET -6.37 0.0165 0.0774
                      }
                    }
                  }
                }
              }
            }
          }
        }
      }
    }
  }
  JOINT LeftUpLeg
  {
    OFFSET 18.5282 -13.8334 2.6624
    CHANNELS 6 Xposition Yposition Zposition Zrotation Xrotation Yrotation
    JOINT LeftLeg
    {
      OFFSET -0.3759 -85.1833 -3.2383
      CHANNELS 6 Xposition Yposition Zposition Zrotation Xrotation Yrotation
      JOINT LeftFoot
      {
        OFFSET 0.4815 -85.4161 -5.1266
        CHANNELS 6 Xposition Yposition Zposition Zrotation Xrotation Yrotation
        JOINT LeftToeBase
        {
          OFFSET 2.6925 -21.3949 24.2907
          CHANNELS 6 Xposition Yposition Zposition Zrotation Xrotation Yrotation
          End Site
          {
            OFFSET -0.3295 0.2505 19.0603
          }
        }
      }
    }
  }
  JOINT RightUpLeg
  {
    OFFSET -18.4363 -14.4167 0.1605
    CHANNELS 6 Xposition Yposition Zposition Zrotation Xrotation Yrotation
    JOINT RightLeg
    {
      OFFSET 1.6634 -84.7366 -3.3661
      CHANNELS 6 Xposition Yposition Zposition Zrotation Xrotation Yrotation
      JOINT RightFoot
      {
        OFFSET 0.5261 -85.2452 -5.4264
        CHANNELS 6 Xposition Yposition Zposition Zrotation Xrotation Yrotation
        JOINT RightToeBase
        {
          OFFSET -3.1537 -21.4911 24.8182
          CHANNELS 6 Xposition Yposition Zposition Zrotation Xrotation Yrotation
          End Site
          {
            OFFSET -2.7312 0.2249 19.5108
          }
        }
      }
    }
  }
}
MOTION
Frames:	4
Frame Time:	0.0333333
-0.196168 207.375 -1.77214 0.414404 -3.31168 3.22425 -0.2002 19.8047 -3.8901 0.81373 5.81912 0.277515 -0.2704 23.5003 -2.3603 0.232606 0.649667 0.0933086 -0.1091 27.8076 -1.1954 0.232892 0.649856 0.088929 0.573 31.0619 3.7617 0.0718937 -0.992672 -0.418025 1.0419 22.231 6.5135 -2.34211 -2.59477 -4.1005 0.1539 38.3123 10.8264 1.43653e-017 0 -0 -6.1169 16.4759 16.457 1.43653e-017 0 -0 6.0855 16.7363 16.7604 1.43653e-017 0 -0 12.9541 18.8948 2.6782 -17.9387 1.75099 -3.62709 26.2666 0.5486 -4.0542 -63.6074 9.41068 5.17846 54.6704 0.9321 7.0242 1.9271 -0.394371 -9.39205 52.4557 -0.9324 5.7058 6.66751 14.3407 -1.73143 27.3527 -0.3203 4.6354 -39.9113 4.65714 0.231571 6.9025 0.1377 0.6199 -28.1167 2.37499 2.23493 6.7755 -0.2326 0.7745 -23.8503 2.60939 -0.165069 9.8642 -2.831 8.1733 11.3723 -5.36211 -2.21475 8.0692 -4.4193 6.4299 -6.23753 15.3734 18.2299 6.7468 -3.6274 4.6394 13.0948 -21.6101 -11.6231 27.224 -0.2989 9.8593 -28.2613 3.35886 -3.23246 7.0183 -0.1543 0.777 -29.3248 3.03664 0.887608 6.4569 -0.1256 0.6937 -17.8961 1.86663 0.310276 25.8273 -0.6126 0.0868 -41.2414 4.70894 2.92697 6.2955 0.1052 0.4118 -41.0473 2.29738 4.22709 6.315 0.079 0.7471 -13.2296 1.49586 -3.77239 23.0359 -1.5146 -4.9212 -38.7312 4.40383 1.07099 6.5099 0.2003 0.5558 -26.1747 2.09968 1.35177 4.1296 -0.0413 0.3994 -20.2137 1.88831 0.493653 -12.6373 19.2153 2.1809 18.2264 0.873499 0.051435 -26.3323 0.6126 -5.423 60.1504 6.21824 5.72364 -55.8405 -0.451 -0.1976 -0.638661 -0.268553 13.1327 -50.2693 -0.9952 1.8626 -4.95511 3.50485 4.39283 -26.0132 -0.6833 1.5036 38.4645 0.69888 -1.02019 -6.1576 0.141 0.0941 34.2095 0.484441 -0.267138 -7.2704 -0.3348 0.122 17.0051 0.281965 -0.142459 -9.0209 -3.67 6.9854 -6.11652 -9.121 4.6053 -7.9552 -4.0356 5.2472 -1.92265 16.7821 -27.2189 -6.5146 -3.6908 4.179 -13.2941 -8.35511 12.2744 -26.2498 -0.8312 6.6599 24.2444 0.503807 1.46355 -7.0902 0.0154 0.1648 39.6877 0.833332 -0.208975 -7.4109 -0.1674 0.1538 18.2448 0.378734 -0.451783 -24.2596 -0.9504 -2.5755 43.41 0.732279 -2.60111 -6.8571 -0.0068 -0.072 32.891 -0.323675 -1.85026 -6.8326 -0.1266 0.154 16.8708 0.320479 2.34754 -21.4052 -1.733 -7.2503 46.6298 0.782667 0.755704 -5.9395 0.0245 0.0143 36.9083 0.067893 -0.179496 -3.7637 -0.0874 0.0158 27.6215 0.108181 -0.517234 18.5282 -13.8334 2.6624 1.2187 -26.098 4.08192 -0.3759 -85.1833 -3.2383 0.762271 54.6598 2.28537 0.4815 -85.4161 -5.1266 -3.27787 1.07253 0.201865 2.6925 -21.3949 24.2907 3.64707e-007 -0.350547 5.20839e-006 -18.4363 -14.4167 0.1605 0.143473 -3.72204 -9.90887 1.6634 -84.7366 -3.3661 2.02016 13.6677 -2.51695 0.5261 -85.2452 -5.4264 -3.30537 -6.91093 -0.35802 -3.1537 -21.4911 24.8182 1.43866e-006 -3.13704 -3.15026e-006 
-0.239364 207.475 -2.11482 1.26796 -2.39338 2.10104 -0.2002 19.8047 -3.8901 -0.291923 5.40989 1.5475 -0.2704 23.5003 -2.3603 0.0829251 0.62733 0.440338 -0.1091 27.8076 -1.1954 0.080879 0.628297 0.436227 0.573 31.0619 3.7617 0.0485616 -1.02754 -0.488589 1.0419 22.231 6.5135 -2.50498 -3.04015 -4.46317 0.1539 38.3123 10.8264 -2.73232e-017 0 -0 -6.1169 16.4759 16.457 -2.73232e-017 0 -0 6.0855 16.7363 16.7604 -2.73232e-017 0 -0 12.9541 18.8948 2.6782 -18.0203 1.60574 -3.00623 26.2666 0.5486 -4.0542 -65.245 9.03591 8.98361 54.6704 0.9321 7.0242 1.9288 -0.38935 -9.09249 52.4557 -0.9324 5.7058 5.98845 17.9513 -0.93586 27.3527 -0.3203 4.6354 -41.0334 4.7592 0.276575 6.9025 0.1377 0.6199 -29.1551 2.45256 2.28675 6.7755 -0.2326 0.7745 -24.971 2.7224 -0.104102 9.8642 -2.831 8.1733 11.3723 -5.36211 -2.21475 8.0692 -4.4193 6.4299 -6.31437 15.3921 18.3763 6.7468 -3.6274 4.6394 13.4586 -22.0701 -11.7949 27.224 -0.2989 9.8593 -29.7925 3.59698 -3.06748 7.0183 -0.1543 0.777 -30.4823 3.14221 0.960808 6.4569 -0.1256 0.6937 -18.8766 1.96372 0.352219 25.8273 -0.6126 0.0868 -42.4747 4.81715 3.04016 6.2955 0.1052 0.4118 -41.9562 2.33689 4.27182 6.315 0.079 0.7471 -14.2257 1.60802 -3.73591 23.0359 -1.5146 -4.9212 -39.8842 4.4872 1.14804 6.5099 0.2003 0.5558 -26.9206 2.1539 1.38514 4.1296 -0.0413 0.3994 -21.1784 1.97293 0.53353 -12.6373 19.2153 2.1809 17.9539 0.919795 0.27343 -26.3323 0.6126 -5.423 58.6789 8.26309 8.9578 -55.8405 -0.451 -0.1976 -0.621013 -0.332531 16.4865 -50.2693 -0.9952 1.8626 -4.63211 0.84753 6.31551 -26.0132 -0.6833 1.5036 38.4862 0.703708 -0.821119 -6.1576 0.141 0.0941 34.3919 0.486657 -0.268843 -7.2704 -0.3348 0.122 17.0871 0.283264 -0.142922 -9.0209 -3.67 6.9854 -6.11652 -9.121 4.6053 -7.9552 -4.0356 5.2472 -1.88608 16.8052 -27.2708 -6.5146 -3.6908 4.179 -13.553 -8.5148 12.4678 -26.2498 -0.8312 6.6599 24.1004 0.505551 1.58589 -7.0902 0.0154 0.1648 39.7918 0.835122 -0.210625 -7.4109 -0.1674 0.1538 18.2598 0.37902 -0.451888 -24.2596 -0.9504 -2.5755 43.4884 0.733002 -2.46494 -6.8571 -0.0068 -0.072 33.0866 -0.325574 -1.84942 -6.8326 -0.1266 0.154 16.9602 0.322372 2.34683 -21.4052 -1.733 -7.2503 46.6718 0.783841 0.933087 -5.9395 0.0245 0.0143 36.9344 0.0679252 -0.179558 -3.7637 -0.0874 0.0158 27.7494 0.108575 -0.517628 18.5282 -13.8334 2.6624 -0.19921 -29.0738 3.98217 -0.3759 -85.1833 -3.2383 -0.14498 45.1959 5.37038 0.4815 -85.4161 -5.1266 -3.17424 0.0604122 0.158561 2.6925 -21.3949 24.2907 3.05514e-007 -0.836914 -1.0987e-006 -18.4363 -14.4167 0.1605 -0.525108 -1.26473 -10.194 1.6634 -84.7366 -3.3661 1.8905 13.3072 -1.19451 0.5261 -85.2452 -5.4264 -4.25889 -9.49302 -0.559964 -3.1537 -21.4911 24.8182 8.56614e-007 -4.11614 -7.00725e-007 
-0.1048 206.827 -2.49351 1.85038 -1.6259 0.938455 -0.2002 19.8047 -3.8901 -1.05096 5.15816 2.59934 -0.2704 23.5003 -2.3603 -0.0193218 0.619173 0.733622 -0.1091 27.8076 -1.1954 -0.0232553 0.620478 0.729547 0.573 31.0619 3.7617 0.00478599 -1.11233 -0.51671 1.0419 22.231 6.5135 -2.7234 -3.57171 -4.44723 0.1539 38.3123 10.8264 1.52389e-017 2.48481e-017 -0 -6.1169 16.4759 16.457 1.52389e-017 2.48481e-017 -0 6.0855 16.7363 16.7604 1.52389e-017 2.48481e-017 -0 12.9541 18.8948 2.6782 -18.1785 1.4515 -2.33518 26.2666 0.5486 -4.0542 -66.7163 7.78133 12.8665 54.6704 0.9321 7.0242 1.93069 -0.383739 -8.75787 52.4557 -0.9324 5.7058 6.13595 20.7383 -0.776326 27.3527 -0.3203 4.6354 -42.1847 4.86202 0.313676 6.9025 0.1377 0.6199 -30.2089 2.53029 2.34079 6.7755 -0.2326 0.7745 -26.0977 2.83477 -0.0405959 9.8642 -2.831 8.1733 11.3723 -5.36211 -2.21475 8.0692 -4.4193 6.4299 -6.40661 15.4144 18.5518 6.7468 -3.6274 4.6394 13.7788 -22.4622 -11.9472 27.224 -0.2989 9.8593 -31.3415 3.83858 -2.87097 7.0183 -0.1543 0.777 -31.6175 3.24426 1.03463 6.4569 -0.1256 0.6937 -19.9969 2.07375 0.402184 25.8273 -0.6126 0.0868 -43.6496 4.91719 3.19407 6.2955 0.1052 0.4118 -42.8145 2.37355 4.31464 6.315 0.079 0.7471 -15.2633 1.72416 -3.69585 23.0359 -1.5146 -4.9212 -41.009 4.56554 1.2298 6.5099 0.2003 0.5558 -27.7081 2.21066 1.42114 4.1296 -0.0413 0.3994 -22.1424 2.05681 0.574773 -12.6373 19.2153 2.1809 17.6686 0.98924 0.59587 -26.3323 0.6126 -5.423 56.9138 10.1024 12.0125 -55.8405 -0.451 -0.1976 -0.599503 -0.395752 19.8614 -50.2693 -0.9952 1.8626 -4.99446 -0.444038 8.17523 -26.0132 -0.6833 1.5036 38.7861 0.712305 -0.612806 -6.1576 0.141 0.0941 34.6654 0.489969 -0.271386 -7.2704 -0.3348 0.122 17.3978 0.288184 -0.144712 -9.0209 -3.67 6.9854 -6.11652 -9.121 4.6053 -7.9552 -4.0356 5.2472 -1.60152 17.0044 -27.6862 -6.5146 -3.6908 4.179 -13.9277 -8.80385 12.8331 -26.2498 -0.8312 6.6599 24.0006 0.515393 1.69043 -7.0902 0.0154 0.1648 40.0854 0.840112 -0.215265 -7.4109 -0.1674 0.1538 18.5416 0.38448 -0.45407 -24.2596 -0.9504 -2.5755 43.6833 0.73493 -2.22486 -6.8571 -0.0068 -0.072 33.467 -0.329267 -1.84777 -6.8326 -0.1266 0.154 17.2016 0.327484 2.34493 -21.4052 -1.733 -7.2503 47.0158 0.78829 1.13728 -5.9395 0.0245 0.0143 37.1342 0.0681486 -0.180076 -3.7637 -0.0874 0.0158 28.0127 0.109396 -0.518477 18.5282 -13.8334 2.6624 -0.976119 -30.194 4.14782 -0.3759 -85.1833 -3.2383 -0.498299 33.0281 9.45851 0.4815 -85.4161 -5.1266 -2.55971 -0.0667632 0.113534 2.6925 -21.3949 24.2907 8.92247e-007 -0.56741 -5.68505e-006 -18.4363 -14.4167 0.1605 -1.08728 0.835376 -10.5047 1.6634 -84.7366 -3.3661 1.83227 13.9683 -0.0126866 0.5261 -85.2452 -5.4264 -5.81173 -12.6584 -0.918991 -3.1537 -21.4911 24.8182 -4.49118e-007 -7.00132 -5.52494e-007 
0.149129 205.494 -1.78533 1.88318 -1.06784 0.304989 -0.2002 19.8047 -3.8901 -1.21048 5.00826 3.26761 -0.2704 23.5003 -2.3603 -0.0348055 0.624662 0.924114 -0.1091 27.8076 -1.1954 -0.0400544 0.626472 0.919804 0.573 31.0619 3.7617 -0.0174797 -1.19632 -0.561382 1.0419 22.231 6.5135 -2.90703 -3.94721 -4.65292 0.1539 38.3123 10.8264 -2.3101e-017 -4.96962e-017 -4.96962e-017 -6.1169 16.4759 16.457 -2.3101e-017 -4.96962e-017 -4.96962e-017 6.0855 16.7363 16.7604 -2.3101e-017 -4.96962e-017 -4.96962e-017 12.9541 18.8948 2.6782 -18.476 1.3619 -1.90768 26.2666 0.5486 -4.0542 -67.7681 6.18716 16.4552 54.6704 0.9321 7.0242 1.93368 -0.374648 -8.21739 52.4557 -0.9324 5.7058 6.29916 21.8939 -0.424789 27.3527 -0.3203 4.6354 -42.8648 4.91852 0.49811 6.9025 0.1377 0.6199 -31.2792 2.60819 2.39711 6.7755 -0.2326 0.7745 -27.1143 2.93505 0.0185941 9.8642 -2.831 8.1733 11.3723 -5.36211 -2.21475 8.0692 -4.4193 6.4299 -6.36666 15.4047 18.4757 6.7468 -3.6274 4.6394 13.4221 -21.9842 -11.7727 27.224 -0.2989 9.8593 -31.9224 3.97966 -2.66011 7.0183 -0.1543 0.777 -32.7283 3.34266 1.10883 6.4569 -0.1256 0.6937 -21.3433 2.20463 0.465074 25.8273 -0.6126 0.0868 -44.2947 4.9684 3.45103 6.2955 0.1052 0.4118 -43.5256 2.40343 4.35051 6.315 0.079 0.7471 -16.2295 1.83161 -3.65667 23.0359 -1.5146 -4.9212 -41.5768 4.57776 1.3726 6.5099 0.2003 0.5558 -28.5692 2.27215 1.46137 4.1296 -0.0413 0.3994 -22.976 2.12875 0.611576 -12.6373 19.2153 2.1809 17.516 1.058 0.900458 -26.3323 0.6126 -5.423 55.0024 11.315 14.7563 -55.8405 -0.451 -0.1976 -0.57719 -0.45111 22.8776 -50.2693 -0.9952 1.8626 -5.61005 -0.86225 9.46478 -26.0132 -0.6833 1.5036 39.2178 0.718986 -0.560557 -6.1576 0.141 0.0941 34.9886 0.493856 -0.274427 -7.2704 -0.3348 0.122 17.8322 0.295049 -0.147261 -9.0209 -3.67 6.9854 -6.11652 -9.121 4.6053 -7.9552 -4.0356 5.2472 -1.42655 17.1262 -27.9404 -6.5146 -3.6908 4.179 -14.3695 -9.10471 13.2061 -26.2498 -0.8312 6.6599 24.3266 0.538348 1.74487 -7.0902 0.0154 0.1648 40.54 0.847845 -0.222505 -7.4109 -0.1674 0.1538 18.995 0.393214 -0.457605 -24.2596 -0.9504 -2.5755 44.0147 0.738541 -2.14004 -6.8571 -0.0068 -0.072 33.9423 -0.333871 -1.84567 -6.8326 -0.1266 0.154 17.6215 0.33636 2.34154 -21.4052 -1.733 -7.2503 47.3095 0.791705 1.2289 -5.9395 0.0245 0.0143 37.4841 0.0685226 -0.180974 -3.7637 -0.0874 0.0158 28.4179 0.110654 -0.519771 18.5282 -13.8334 2.6624 -1.63518 -28.5887 3.92735 -0.3759 -85.1833 -3.2383 -0.205033 17.2676 9.73406 0.4815 -85.4161 -5.1266 -1.21717 0.487414 3.00197 2.6925 -21.3949 24.2907 2.46193e-006 0.276407 -5.27884e-006 -18.4363 -14.4167 0.1605 -1.3064 4.24907 -10.9653 1.6634 -84.7366 -3.3661 2.07706 13.2675 0.900631 0.5261 -85.2452 -5.4264 -6.17686 -15.0882 -1.18005 -3.1537 -21.4911 24.8182 2.97715e-007 -8.94598 5.64629e-006 
